<?xml version="1.0" encoding="UTF-8" standalone="no"?><svg xmlns="http://www.w3.org/2000/svg" xmlns:xlink="http://www.w3.org/1999/xlink" contentScriptType="application/ecmascript" contentStyleType="text/css" height="356px" preserveAspectRatio="none" style="width:204px;height:356px;" version="1.1" viewBox="0 0 204 356" width="204px" zoomAndPan="magnify"><defs><filter height="300%" id="f1v9wu403riezh" width="300%" x="-1" y="-1"><feGaussianBlur result="blurOut" stdDeviation="2.0"/><feColorMatrix in="blurOut" result="blurOut2" type="matrix" values="0 0 0 0 0 0 0 0 0 0 0 0 0 0 0 0 0 0 .4 0"/><feOffset dx="4.0" dy="4.0" in="blurOut2" result="blurOut3"/><feBlend in="SourceGraphic" in2="blurOut3" mode="normal"/></filter></defs><g><!--MD5=[19fc8c754692a6796621efa1ca3e8ab0]
class Staking--><rect codeLine="11" fill="#FEFECE" filter="url(#f1v9wu403riezh)" height="227.2656" id="Staking" style="stroke:#A80036;stroke-width:1.5;" width="181" x="9" y="7"/><ellipse cx="73.25" cy="23" fill="#ADD1B2" rx="11" ry="11" style="stroke:#A80036;stroke-width:1.0;"/><path d="M75.5938,18.6719 C74.6563,18.2344 74.0625,18.0938 73.1875,18.0938 C70.5625,18.0938 68.5625,20.1719 68.5625,22.8906 L68.5625,24.0156 C68.5625,26.5938 70.6719,28.4844 73.5625,28.4844 C74.7813,28.4844 75.9375,28.1875 76.6875,27.6406 C77.2656,27.2344 77.5938,26.7813 77.5938,26.3906 C77.5938,25.9375 77.2031,25.5469 76.7344,25.5469 C76.5156,25.5469 76.3125,25.625 76.125,25.8125 C75.6719,26.2969 75.6719,26.2969 75.4844,26.3906 C75.0625,26.6563 74.375,26.7813 73.6094,26.7813 C71.5625,26.7813 70.2656,25.6875 70.2656,23.9844 L70.2656,22.8906 C70.2656,21.1094 71.5156,19.7969 73.25,19.7969 C73.8281,19.7969 74.4375,19.9531 74.9063,20.2031 C75.3906,20.4844 75.5625,20.7031 75.6563,21.1094 C75.7188,21.5156 75.75,21.6406 75.8906,21.7656 C76.0313,21.9063 76.2656,22.0156 76.4844,22.0156 C76.75,22.0156 77.0156,21.875 77.1875,21.6563 C77.2969,21.5 77.3281,21.3125 77.3281,20.8906 L77.3281,19.4688 C77.3281,19.0313 77.3125,18.9063 77.2188,18.75 C77.0625,18.4844 76.7813,18.3438 76.4844,18.3438 C76.1875,18.3438 75.9844,18.4375 75.7656,18.75 L75.5938,18.6719 Z " fill="#000000"/><text fill="#000000" font-family="sans-serif" font-size="12" lengthAdjust="spacing" textLength="44" x="93.75" y="27.1543">Staking</text><line style="stroke:#A80036;stroke-width:1.5;" x1="10" x2="189" y1="39" y2="39"/><text fill="#000000" font-family="sans-serif" font-size="11" font-style="italic" lengthAdjust="spacing" textLength="49" x="29" y="53.2104">Ownable</text><text fill="#000000" font-family="sans-serif" font-size="11" lengthAdjust="spacing" textLength="0" x="33" y="66.0151"/><text fill="#000000" font-family="sans-serif" font-size="11" lengthAdjust="spacing" textLength="0" x="33" y="78.8198"/><polygon fill="none" points="20,83.4141,24,87.4141,20,91.4141,16,87.4141" style="stroke:#B38D22;stroke-width:1.0;"/><a href="uint256" target="_top" title="uint256" xlink:actuate="onRequest" xlink:href="uint256" xlink:show="new" xlink:title="uint256" xlink:type="simple"><text fill="#0000FF" font-family="sans-serif" font-size="11" lengthAdjust="spacing" text-decoration="underline" textLength="42" x="29" y="91.6245">uint256</text></a><text fill="#000000" font-family="sans-serif" font-size="11" lengthAdjust="spacing" textLength="45" x="75" y="91.6245">oneDay</text><polygon fill="none" points="20,96.2188,24,100.2188,20,104.2188,16,100.2188" style="stroke:#B38D22;stroke-width:1.0;"/><a href="StakingFactory" target="_top" title="StakingFactory" xlink:actuate="onRequest" xlink:href="StakingFactory" xlink:show="new" xlink:title="StakingFactory" xlink:type="simple"><text fill="#0000FF" font-family="sans-serif" font-size="11" lengthAdjust="spacing" text-decoration="underline" textLength="83" x="29" y="104.4292">StakingFactory</text></a><text fill="#000000" font-family="sans-serif" font-size="11" lengthAdjust="spacing" textLength="39" x="116" y="104.4292">factory</text><polygon fill="none" points="20,109.0234,24,113.0234,20,117.0234,16,113.0234" style="stroke:#B38D22;stroke-width:1.0;"/><a href="Mock" target="_top" title="Mock" xlink:actuate="onRequest" xlink:href="Mock" xlink:show="new" xlink:title="Mock" xlink:type="simple"><text fill="#0000FF" font-family="sans-serif" font-size="11" lengthAdjust="spacing" text-decoration="underline" textLength="28" x="29" y="117.2339">Mock</text></a><text fill="#000000" font-family="sans-serif" font-size="11" lengthAdjust="spacing" textLength="80" x="61" y="117.2339">rewardsToken</text><polygon fill="none" points="20,121.8281,24,125.8281,20,129.8281,16,125.8281" style="stroke:#B38D22;stroke-width:1.0;"/><a href="IERC20" target="_top" title="IERC20" xlink:actuate="onRequest" xlink:href="IERC20" xlink:show="new" xlink:title="IERC20" xlink:type="simple"><text fill="#0000FF" font-family="sans-serif" font-size="11" lengthAdjust="spacing" text-decoration="underline" textLength="39" x="29" y="130.0386">IERC20</text></a><text fill="#000000" font-family="sans-serif" font-size="11" lengthAdjust="spacing" textLength="75" x="72" y="130.0386">stakingToken</text><polygon fill="none" points="20,134.6328,24,138.6328,20,142.6328,16,138.6328" style="stroke:#B38D22;stroke-width:1.0;"/><a href="mapping" target="_top" title="mapping" xlink:actuate="onRequest" xlink:href="mapping" xlink:show="new" xlink:title="mapping" xlink:type="simple"><text fill="#0000FF" font-family="sans-serif" font-size="11" lengthAdjust="spacing" text-decoration="underline" textLength="116" x="29" y="142.8433">address=&gt;UserData</text></a><text fill="#000000" font-family="sans-serif" font-size="11" lengthAdjust="spacing" textLength="31" x="153" y="142.8433">users</text><line style="stroke:#A80036;stroke-width:1.5;" x1="10" x2="189" y1="149.4375" y2="149.4375"/><ellipse cx="20" cy="160.4375" fill="#84BE84" rx="3" ry="3" style="stroke:#038048;stroke-width:1.0;"/><text fill="#000000" font-family="sans-serif" font-size="11" font-weight="bold" lengthAdjust="spacing" textLength="105" x="29" y="163.6479">__constructor__</text><text fill="#000000" font-family="sans-serif" font-size="11" lengthAdjust="spacing" textLength="8" x="134" y="163.6479">()</text><polygon fill="#FFFF44" points="20,168.2422,24,172.2422,20,176.2422,16,172.2422" style="stroke:#B38D22;stroke-width:1.0;"/><text fill="#000000" font-family="sans-serif" font-size="11" lengthAdjust="spacing" textLength="125" x="29" y="176.4526">&#128269;checkUpdateLevel()</text><ellipse cx="20" cy="186.0469" fill="#84BE84" rx="3" ry="3" style="stroke:#038048;stroke-width:1.0;"/><text fill="#000000" font-family="sans-serif" font-size="11" lengthAdjust="spacing" textLength="50" x="29" y="189.2573">deposit()</text><ellipse cx="20" cy="198.8516" fill="#84BE84" rx="3" ry="3" style="stroke:#038048;stroke-width:1.0;"/><text fill="#000000" font-family="sans-serif" font-size="11" lengthAdjust="spacing" textLength="112" x="29" y="202.062">&#128269;calculateReward()</text><ellipse cx="20" cy="211.6563" fill="#84BE84" rx="3" ry="3" style="stroke:#038048;stroke-width:1.0;"/><text fill="#000000" font-family="sans-serif" font-size="11" lengthAdjust="spacing" textLength="58" x="29" y="214.8667">withdraw()</text><ellipse cx="20" cy="224.4609" fill="#84BE84" rx="3" ry="3" style="stroke:#038048;stroke-width:1.0;"/><text fill="#000000" font-family="sans-serif" font-size="11" lengthAdjust="spacing" textLength="117" x="29" y="227.6714">withdrawByAmount()</text><!--MD5=[e8b38f76951d75a61b4cdf53a76e6409]
class Ownable--><rect fill="#FEFECE" filter="url(#f1v9wu403riezh)" height="48" id="Ownable" style="stroke:#A80036;stroke-width:1.5;" width="85" x="57" y="294"/><ellipse cx="72" cy="310" fill="#ADD1B2" rx="11" ry="11" style="stroke:#A80036;stroke-width:1.0;"/><path d="M74.3438,305.6719 C73.4063,305.2344 72.8125,305.0938 71.9375,305.0938 C69.3125,305.0938 67.3125,307.1719 67.3125,309.8906 L67.3125,311.0156 C67.3125,313.5938 69.4219,315.4844 72.3125,315.4844 C73.5313,315.4844 74.6875,315.1875 75.4375,314.6406 C76.0156,314.2344 76.3438,313.7813 76.3438,313.3906 C76.3438,312.9375 75.9531,312.5469 75.4844,312.5469 C75.2656,312.5469 75.0625,312.625 74.875,312.8125 C74.4219,313.2969 74.4219,313.2969 74.2344,313.3906 C73.8125,313.6563 73.125,313.7813 72.3594,313.7813 C70.3125,313.7813 69.0156,312.6875 69.0156,310.9844 L69.0156,309.8906 C69.0156,308.1094 70.2656,306.7969 72,306.7969 C72.5781,306.7969 73.1875,306.9531 73.6563,307.2031 C74.1406,307.4844 74.3125,307.7031 74.4063,308.1094 C74.4688,308.5156 74.5,308.6406 74.6406,308.7656 C74.7813,308.9063 75.0156,309.0156 75.2344,309.0156 C75.5,309.0156 75.7656,308.875 75.9375,308.6563 C76.0469,308.5 76.0781,308.3125 76.0781,307.8906 L76.0781,306.4688 C76.0781,306.0313 76.0625,305.9063 75.9688,305.75 C75.8125,305.4844 75.5313,305.3438 75.2344,305.3438 C74.9375,305.3438 74.7344,305.4375 74.5156,305.75 L74.3438,305.6719 Z " fill="#000000"/><text fill="#000000" font-family="sans-serif" font-size="12" lengthAdjust="spacing" textLength="53" x="86" y="314.1543">Ownable</text><line style="stroke:#A80036;stroke-width:1.5;" x1="58" x2="141" y1="326" y2="326"/><line style="stroke:#A80036;stroke-width:1.5;" x1="58" x2="141" y1="334" y2="334"/><!--MD5=[2a942c8fc490337ad9f13f052f7f0386]
link Staking to Ownable--><path codeLine="34" d="M99.5,234.09 C99.5,248.13 99.5,261.7514 99.5,273.7595 " fill="none" id="Staking-to-Ownable" style="stroke:#B8860B;stroke-width:1.0;"/><polygon fill="none" points="106.5001,273.9567,99.5,293.9566,92.5001,273.9566,106.5001,273.9567" style="stroke:#B8860B;stroke-width:1.0;"/><!--MD5=[fb720d9e60be82376b3ffbc2eb633e44]
@startuml
' - - generated by: https://marketplace.visualstudio.com/items?itemName=tintinweb.solidity-visual-auditor
'
' - - for auto-render install: https://marketplace.visualstudio.com/items?itemName=jebbs.plantuml
' - - options - -



' - - classes - -


class Staking {
    ' - - inheritance - -
	{abstract}Ownable

    ' - - usingFor - -

    ' - - vars - -
	#[[uint256]] oneDay
	#[[StakingFactory]] factory
	#[[Mock]] rewardsToken
	#[[IERC20]] stakingToken
	#[[mapping address=>UserData ]] users

    ' - - methods - -
	+**__constructor__**()
	#ðŸ”checkUpdateLevel()
	+deposit()
	+ðŸ”calculateReward()
	+withdraw()
	+withdrawByAmount()

}
' - - inheritance / usingFor - -
Staking - -[#DarkGoldenRod]|> Ownable
@enduml

@startuml





class Staking {
	{abstract}Ownable


	#[[uint256]] oneDay
	#[[StakingFactory]] factory
	#[[Mock]] rewardsToken
	#[[IERC20]] stakingToken
	#[[mapping address=>UserData ]] users

	+**__constructor__**()
	#ðŸ”checkUpdateLevel()
	+deposit()
	+ðŸ”calculateReward()
	+withdraw()
	+withdrawByAmount()

}
Staking - -[#DarkGoldenRod]|> Ownable
@enduml

PlantUML version 1.2021.4beta3(Unknown compile time)
(GPL source distribution)
Java Runtime: Java(TM) SE Runtime Environment
JVM: Java HotSpot(TM) 64-Bit Server VM
Default Encoding: UTF-8
Language: en
Country: US
--></g></svg>